#!OML:ASF X:\für Bonn\!DataBase\2005_08_12_Daniel\c3d\Daniel.ASF
:FULLY-SPECIFIED
:DEGREES
309
root 1.55915 16.6361 -0.866125 109.433 -84.3002 -123.147
lowerback 19.1119 -1.99632 6.70445
upperback 3.28398 -1.41486 1.10358
thorax -7.2596 -0.931166 -2.25263
lowerneck 1.70667 2.18648 4.3457
upperneck 7.23702 3.00213 -3.404
head 2.12446 1.49302 -1.79261
rclavicle -2.26708e-014 4.23411e-014
rhumerus -18.6783 19.8584 -95.6244
rradius 52.7812
rwrist 19.9006
rhand -21.0675 375.414
rfingers 7.12502
rthumb 5.30917 345.501
lclavicle -2.26708e-014 4.23411e-014
lhumerus -226.36 200.419 -71.4301
lradius 79.8765
lwrist -5.45321
lhand 32.9544 8.0528
lfingers 7.12502
lthumb 56.3416 25.1744
rfemur 6.549 15.5186 28.9078
rtibia 32.1137
rfoot 328.672 -16.0668
rtoes -9.15235
lfemur -7.4595 -4.72496 -3.10193
ltibia 51.1793
lfoot -20.1462 -0.107708
ltoes -6.58357
310
root 1.57675 16.6419 -0.888495 110.706 -84.38 -124.439
lowerback 19.1325 -1.9559 6.71355
upperback 3.31024 -1.36555 1.02936
thorax -7.23945 -0.907388 -2.35075
lowerneck 1.70477 2.17947 4.34707
upperneck 7.47329 2.99046 -3.39761
head 2.20194 1.48545 -1.79168
rclavicle 1.15326e-014 -2.98177e-015
rhumerus -18.0391 20.8102 -95.7673
rradius 52.4555
rwrist 20.3691
rhand -20.9942 376.059
rfingers 7.12502
rthumb 5.37993 346.147
lclavicle 1.15326e-014 -2.98177e-015
lhumerus -226.438 200.387 -71.1334
lradius 79.9211
lwrist -5.83216
lhand 32.8421 7.9768
lfingers 7.12502
lthumb 56.2424 25.177
rfemur 6.55084 15.8382 28.975
rtibia 32.1209
rfoot 328.563 -16.292
rtoes -9.0704
lfemur -7.91411 -4.68015 -3.12075
ltibia 51.6876
lfoot -19.3844 0.0487432
ltoes -6.77238
311
root 1.59334 16.6529 -0.908984 112.363 -84.5264 -126.091
lowerback 19.1089 -1.88993 6.65211
upperback 3.35627 -1.30357 0.926899
thorax -7.17203 -0.874363 -2.44398
lowerneck 1.64753 2.16343 4.29907
upperneck 7.67508 2.9618 -3.32449
head 2.27466 1.46972 -1.75983
rclavicle 8.69062e-015 -3.90612e-014
rhumerus -17.4741 21.5778 -95.9048
rradius 52.2284
rwrist 20.925
rhand -20.7078 376.69
rfingers 7.12502
rthumb 5.65646 346.785
lclavicle 8.69062e-015 -3.90612e-014
lhumerus -226.523 200.408 -70.8329
lradius 79.9668
lwrist -6.31241
lhand 32.5662 7.94072
lfingers 7.12502
lthumb 55.9981 25.3319
rfemur 6.5287 16.1354 28.9246
rtibia 32.1134
rfoot 328.526 -16.5056
rtoes -8.87211
lfemur -8.37305 -4.66794 -3.24826
ltibia 52.1607
lfoot -18.5932 0.245124
ltoes -6.85179
312
root 1.61164 16.6674 -0.92768 114.122 -84.7122 -127.818
lowerback 19.0691 -1.82675 6.54928
upperback 3.39036 -1.25382 0.815721
thorax -7.10957 -0.846295 -2.52005
lowerneck 1.66609 2.15462 4.17834
upperneck 7.82847 2.94136 -3.19363
head 2.31526 1.45782 -1.69633
rclavicle -2.18974e-015 -1.36167e-014
rhumerus -17.0749 22.2548 -96.0572
rradius 52.1328
rwrist 21.4779
rhand -20.2972 377.326
rfingers 7.12502
rthumb 6.0529 347.433
lclavicle -2.18974e-015 -1.36167e-014
lhumerus -226.589 200.45 -70.5568
lradius 80.014
lwrist -6.85854
lhand 32.2632 8.04939
lfingers 7.12502
lthumb 55.7294 25.647
rfemur 6.47524 16.4159 28.8142
rtibia 32.0815
rfoot 328.534 -16.7598
rtoes -8.89548
lfemur -8.89627 -4.67989 -3.43438
ltibia 52.6263
lfoot -17.6912 0.525846
ltoes -7.02437
313
root 1.62924 16.6855 -0.945457 116.252 -84.943 -129.929
lowerback 19.0474 -1.749 6.36841
upperback 3.42097 -1.19874 0.702708
thorax -7.05903 -0.814258 -2.55464
lowerneck 1.70073 2.1362 4.06122
upperneck 7.96212 2.90951 -3.08281
head 2.34667 1.44002 -1.6404
rclavicle -1.56543e-015 -2.127e-014
rhumerus -16.8874 22.8394 -96.2102
rradius 52.204
rwrist 22.0096
rhand -19.787 377.899
rfingers 7.12502
rthumb 6.54543 348.02
lclavicle -1.56543e-015 -2.127e-014
lhumerus -226.69 200.486 -70.2658
lradius 80.1241
lwrist -7.36217
lhand 31.9041 8.358
lfingers 7.12502
lthumb 55.4102 26.1958
rfemur 6.44394 16.687 28.6375
rtibia 32.0417
rfoot 328.558 -17.0141
rtoes -8.85157
lfemur -9.42199 -4.70908 -3.70161
ltibia 53.0689
lfoot -16.677 0.885024
ltoes -7.28998
314
root 1.64771 16.7056 -0.961679 118.806 -85.2043 -132.422
lowerback 18.995 -1.65987 6.17135
upperback 3.43614 -1.13429 0.556838
thorax -7.00847 -0.777315 -2.61801
lowerneck 1.80605 2.11505 3.9365
upperneck 8.02817 2.87151 -2.90345
head 2.34113 1.42114 -1.56116
rclavicle 2.29969e-014 -1.45113e-014
rhumerus -16.8206 23.2554 -96.4148
rradius 52.2923
rwrist 22.6548
rhand -19.2578 378.319
rfingers 7.12502
rthumb 7.05626 348.456
lclavicle 2.29969e-014 -1.45113e-014
lhumerus -226.853 200.508 -70.0273
lradius 80.3485
lwrist -7.83376
lhand 31.7244 8.86826
lfingers 7.12502
lthumb 55.2502 26.8244
rfemur 6.35702 16.9207 28.3737
rtibia 31.9977
rfoot 328.604 -17.2356
rtoes -8.90394
lfemur -10.0084 -4.74563 -4.01623
ltibia 53.5054
lfoot -15.6286 1.2577
ltoes -7.41374
315
root 1.66685 16.7253 -0.97671 121.646 -85.5201 -135.193
lowerback 18.9198 -1.57344 5.8979
upperback 3.47164 -1.09104 0.41853
thorax -6.92437 -0.748132 -2.62472
lowerneck 1.87034 2.09286 3.83957
upperneck 8.07465 2.83465 -2.77762
head 2.33853 1.4025 -1.50415
rclavicle -1.3359e-014 -2.83268e-014
rhumerus -16.8452 23.6095 -96.6172
rradius 52.4205
rwrist 23.189
rhand -18.7214 378.641
rfingers 7.12502
rthumb 7.57406 348.797
lclavicle -1.3359e-014 -2.83268e-014
lhumerus -226.944 200.505 -69.8439
lradius 80.5932
lwrist -8.16098
lhand 31.609 9.49206
lfingers 7.12502
lthumb 55.1474 27.5236
rfemur 6.26923 17.195 28.0722
rtibia 31.9689
rfoot 328.591 -17.4704
rtoes -8.89682
lfemur -10.6075 -4.81299 -4.40415
ltibia 53.9295
lfoot -14.6413 1.65697
ltoes -7.6521
